<svg width="19" height="25" viewBox="0 0 19 25" fill="none" xmlns="http://www.w3.org/2000/svg">
<path d="M18.998 9.20549C19.0112 10.4275 18.0926 11.3941 17.2357 11.4869C16.6655 11.5486 16.0815 11.5899 15.5359 11.759C14.7813 11.993 14.0881 12.3885 13.5457 13.0409C12.9171 13.7975 12.5655 14.6331 12.504 15.6847C12.4437 16.7205 12.1122 17.7346 11.0504 18.1066C9.42115 18.6782 7.59838 17.8555 7.61909 15.7757C7.62789 14.9167 8.19362 14.0017 9.09719 13.6417C9.58184 13.4485 10.0464 13.4726 10.5224 13.4008C11.9489 13.1865 13.0759 12.4591 13.7691 11.0583C14.1012 10.3875 14.2915 9.67407 14.262 8.90027C14.235 8.1875 13.9412 7.35515 13.5488 6.8026C12.8863 5.86984 12.2239 5.35099 11.2225 5.05024C10.3836 4.79781 9.50839 4.81433 8.63125 5.12146C7.88847 5.3815 7.33406 5.85646 6.81233 6.43065C6.25853 7.04107 5.96216 7.76912 5.91634 8.61924C5.87237 9.43499 5.69595 10.2197 5.15033 10.8084C4.59152 11.4118 3.91028 11.6375 3.08086 11.5199C2.3494 11.4163 1.84584 11.0666 1.41324 10.4638C0.763399 9.55841 0.844388 8.28989 1.64744 7.51097C2.2075 6.96732 2.81213 6.73901 3.62524 6.66526C5.17544 6.52412 7.049 5.31538 7.40879 3.61578C7.48724 3.24381 7.57139 2.86675 7.59464 2.48842C7.65807 1.43992 8.23634 0.461358 9.24653 0.151066C10.7648 -0.315006 11.925 0.30049 12.3664 1.95432C12.4412 2.23473 12.5071 2.52467 12.5272 2.8146C12.6239 4.23319 13.2757 5.24861 14.3958 5.97157C15.114 6.4351 15.8656 6.59217 16.7038 6.68309C17.8183 6.80326 18.9485 7.69342 18.998 9.20549Z" fill="#005BAA"/>
<path d="M0.983643 15.6955C0.983643 14.4735 1.91288 13.5171 2.77119 13.4338C3.34192 13.3786 3.92647 13.3443 4.47397 13.1808C5.23119 12.9551 5.92874 12.5678 6.47812 11.9212C7.1148 11.1722 7.47581 10.3405 7.54867 9.28943C7.62022 8.25427 7.96305 7.24395 9.02849 6.88406C10.6642 6.33085 12.4781 7.17459 12.4342 9.25383C12.4159 10.1128 11.8401 11.0215 10.9329 11.3712C10.4463 11.5587 9.98162 11.5295 9.50509 11.5957C8.0761 11.794 6.94088 12.5087 6.23265 13.9012C5.89296 14.5682 5.69518 15.279 5.7159 16.0535C5.73536 16.7663 6.00472 17.3824 6.31049 17.9877C6.83601 19.0293 7.7144 19.6251 8.7127 19.9379C9.54903 20.1999 10.4243 20.1929 11.3046 19.8959C12.0505 19.6441 12.6099 19.1762 13.138 18.6071C13.6986 18.003 14.0032 17.2788 14.0578 16.4287C14.1106 15.6135 14.2957 14.8314 14.8476 14.2484C15.4134 13.6513 16.0965 13.4332 16.9252 13.5604C17.6555 13.6723 18.1553 14.0277 18.5809 14.6356C19.2209 15.5481 19.1254 16.8158 18.3142 17.5852C17.7478 18.1226 17.1412 18.3438 16.3269 18.4087C14.7754 18.5321 12.8887 19.7198 12.5102 21.4149C12.4272 21.7863 12.3393 22.1621 12.3123 22.5404C12.237 23.5884 11.6487 24.5606 10.6346 24.8593C9.11142 25.3082 7.95801 24.6795 7.53483 23.021C7.46327 22.7401 7.40045 22.4488 7.38354 22.1588C7.30191 20.7398 6.6621 19.7166 5.55013 18.981C4.83689 18.5091 4.08721 18.3438 3.24963 18.2434C2.13641 18.1112 1.01629 17.2082 0.983643 15.6955Z" fill="#005BAA"/>
</svg>
