<svg width="56" height="55" viewBox="0 0 56 55" fill="none" xmlns="http://www.w3.org/2000/svg">
<ellipse cx="27.7995" cy="27.5393" rx="27.2526" ry="27.2859" fill="white" fill-opacity="0.16"/>
<g clip-path="url(#clip0_1_2873)">
<path d="M34.0596 31.4228C33.2747 30.6474 32.2949 30.6474 31.515 31.4228C30.9201 32.0131 30.3252 32.6034 29.7403 33.2037C29.5803 33.3687 29.4453 33.4038 29.2503 33.2937C28.8654 33.0836 28.4554 32.9135 28.0855 32.6834C26.3608 31.5979 24.916 30.2022 23.6362 28.6315C23.0013 27.8511 22.4363 27.0157 22.0414 26.0752C21.9614 25.8852 21.9764 25.7601 22.1314 25.605C22.7263 25.0297 23.3062 24.4395 23.8911 23.8492C24.706 23.0288 24.706 22.0683 23.8861 21.2429C23.4212 20.7727 22.9563 20.3125 22.4913 19.8422C22.0114 19.362 21.5365 18.8768 21.0516 18.4016C20.2667 17.6362 19.2868 17.6362 18.5069 18.4066C17.907 18.9968 17.3321 19.6021 16.7222 20.1824C16.1573 20.7177 15.8723 21.373 15.8123 22.1384C15.7173 23.384 16.0223 24.5595 16.4522 25.7051C17.3321 28.0762 18.6719 30.1822 20.2967 32.1131C22.4913 34.7244 25.1109 36.7904 28.1755 38.2811C29.5553 38.9514 30.9851 39.4667 32.5398 39.5517C33.6097 39.6117 34.5395 39.3416 35.2844 38.5062C35.7944 37.9359 36.3693 37.4157 36.9092 36.8704C37.7091 36.06 37.7141 35.0796 36.9192 34.2792C35.9693 33.3237 35.0145 32.3733 34.0596 31.4228Z" fill="white"/>
<path d="M33.1034 27.4359L34.9477 27.1208C34.6578 25.425 33.8581 23.8892 32.6436 22.6686C31.3591 21.383 29.7347 20.5726 27.9454 20.3225L27.6855 22.1784C29.07 22.3735 30.3295 22.9988 31.3241 23.9943C32.2637 24.9347 32.8785 26.1253 33.1034 27.4359Z" fill="white"/>
<path d="M35.9838 19.4121C33.8543 17.2811 31.16 15.9355 28.1857 15.5203L27.9258 17.3762C30.4952 17.7363 32.8246 18.9019 34.6641 20.7378C36.4087 22.4836 37.5534 24.6897 37.9683 27.1158L39.8129 26.8007C39.328 23.9893 38.0033 21.4381 35.9838 19.4121Z" fill="white"/>
</g>
<defs>
<clipPath id="clip0_1_2873">
<rect width="28.0215" height="28.0215" fill="white" transform="translate(13.7891 13.5286)"/>
</clipPath>
</defs>
</svg>
